<svg id="Layer_1" data-name="Layer 1" xmlns="http://www.w3.org/2000/svg" xmlns:xlink="http://www.w3.org/1999/xlink" viewBox="0 0 208.87 208.87"><defs><style>.cls-1{fill:url(#linear-gradient);}.cls-2{fill:#fff;}</style><linearGradient id="linear-gradient" x1="11.55" y1="186.93" x2="252.11" y2="-26.72" gradientUnits="userSpaceOnUse"><stop offset="0" stop-color="#35bef4"/><stop offset="0.33" stop-color="#228dcc"/><stop offset="0.94" stop-color="#023886"/></linearGradient></defs><title>LOGO HORA</title><circle class="cls-1" cx="104.44" cy="104.44" r="104.44"/><path class="cls-2" d="M104.38,35.65,45.77,69.49l-1,.55v68.79l59.57,34.39L163,139.38l.95-.55V70Zm-1.91,5.52V66.52l-30,17.3-22-12.67Zm-30,83.88,30,17.31v25.35l-51.93-30Zm-1.9-37.92v34.62l-22,12.67v-60Zm3.82,0,30-17.31,30,17.31v34.61l-30,17.31-30-17.31Zm61.86-3.31-30-17.3V41.17l51.93,30Zm21.95,53.91-51.93,30V142.36l30-17.31Zm-20-16V87.13l21.95-12.68v60Z"/><circle class="cls-2" cx="46.78" cy="71.28" r="8.1"/><circle class="cls-2" cx="104.38" cy="38.6" r="8.1"/><circle class="cls-2" cx="104.38" cy="170.27" r="8.1"/><circle class="cls-2" cx="162.1" cy="71.28" r="8.1"/><circle class="cls-2" cx="46.78" cy="136.63" r="8.1"/><circle class="cls-2" cx="162.1" cy="136.63" r="8.1"/></svg>